<?xml version="1.0" encoding="utf-8"?>
<!-- Generator: Adobe Illustrator 24.1.2, SVG Export Plug-In . SVG Version: 6.00 Build 0)  -->
<svg version="1.1" xmlns="http://www.w3.org/2000/svg" xmlns:xlink="http://www.w3.org/1999/xlink" x="0px" y="0px"
	 viewBox="0 0 476 447" style="enable-background:new 0 0 476 447;" xml:space="preserve">
<style type="text/css">
	.st0{fill:#0B8412;}
	.st1{fill:#F9FCF9;}
</style>
<g id="Calque_2">
	<path class="st0" d="M458,376c0,0,59-101-39-124c0,0-69,12-75-30c0,0-10-28-49-16c0,0-29-1-29-17c0,0-14,20,16,40c0,0,41,40-15,30
		c0,0-35-40-53-18c0,0,44,18,0,33c0,0-51,28-40-119c0,0,18-77-75-67c0,0-76,1-89-88c0,0-29,38,13,106c0,0,12,46-10,53
		c0,0,6,58,59,21c0,0,53-27,18,34c0,0-5,32,17,48c0,0,54,69-24,33c0,0-10-1-14-25c0,0-22,74,60,119c0,0,69,16,108-14
		c0,0,47-33,71,59C308,434,398,488,458,376z"/>
</g>
<g id="Calque_3">
	<circle class="st1" cx="384" cy="347" r="54"/>
	<path class="st1" d="M422.4,309.1c0,0-26.4-44.1-198.4-2.1c0,0-67,10-61-53c0,0-48,121,91,102c0,0,37.6-10.5,82.8,17.3"/>
	<ellipse cx="423" cy="338.5" rx="4" ry="11.5"/>
</g>
</svg>
