<?xml version="1.0" encoding="utf-8"?>
<!-- Generator: Adobe Illustrator 24.1.3, SVG Export Plug-In . SVG Version: 6.00 Build 0)  -->
<svg version="1.1" id="Calque_1" xmlns="http://www.w3.org/2000/svg" xmlns:xlink="http://www.w3.org/1999/xlink" x="0px" y="0px"
	 viewBox="0 0 1000 510" style="enable-background:new 0 0 1000 510;" xml:space="preserve">
<style type="text/css">
	.st0{fill:none;stroke:#F5F5F5;stroke-width:25;stroke-miterlimit:10;}
	.st1{enable-background:new    ;}
	.st2{fill:#F5F5F5;}
	.st3{display:none;fill:none;stroke:#F5F5F5;stroke-width:75;stroke-miterlimit:10;}
	.st4{display:none;fill:#F5F5F5;stroke:#F5F5F5;stroke-width:75;stroke-miterlimit:10;}
</style>
<path id="haut" class="st0" d="M437.4,495H72.6C40.9,495,15,469.1,15,437.4V72.6C15,40.9,40.9,15,72.6,15h364.8
	c31.7,0,57.6,25.9,57.6,57.6v364.8C495,469.1,469.1,495,437.4,495z"/>
<g class="st1">
	<path class="st2" d="M184.1,351.8V160H201l47.4,93.9l48.3-94.2h16.3v192.2h-20.3V207.1l-41.6,77.3h-8.3L204.1,208v143.8H184.1z"/>
</g>
<path class="st3" d="M656,375V135V375z"/>
<polygon class="st4" points="797.8,255 656,135 656,375 "/>
<path class="st2" d="M797.4,100.2c-3.7-1.8-8.1-1.3-11.3,1.3l-103.4,82.7h-49.4c-11.7,0-21.3,9.5-21.3,21.3v85.1
	c0,11.7,9.5,21.3,21.3,21.3h49.4l103.4,82.7c1.9,1.5,4.3,2.3,6.7,2.3c1.6,0,3.1-0.4,4.6-1.1c3.7-1.8,6-5.5,6-9.6V109.8
	C803.4,105.7,801.1,102,797.4,100.2z"/>
<line class="st0" x1="837" y1="184" x2="965" y2="312"/>
<line class="st0" x1="965" y1="184" x2="837" y2="312"/>
</svg>
