<?xml version="1.0" encoding="utf-8"?>
<!-- Generator: Adobe Illustrator 24.1.3, SVG Export Plug-In . SVG Version: 6.00 Build 0)  -->
<svg version="1.1" id="Calque_1" xmlns="http://www.w3.org/2000/svg" xmlns:xlink="http://www.w3.org/1999/xlink" x="0px" y="0px"
	 viewBox="0 0 1000 510" style="enable-background:new 0 0 1000 510;" xml:space="preserve">
<style type="text/css">
	.st0{fill:none;stroke:#F5F5F5;stroke-width:25;stroke-miterlimit:10;}
	.st1{enable-background:new    ;}
	.st2{fill:#F5F5F5;}
	.st3{fill:none;stroke:#F5F5F5;stroke-width:75;stroke-miterlimit:10;}
</style>
<path id="haut" class="st0" d="M437.4,495H72.6C40.9,495,15,469.1,15,437.4V72.6C15,40.9,40.9,15,72.6,15h364.8
	c31.7,0,57.6,25.9,57.6,57.6v364.8C495,469.1,469.1,495,437.4,495z"/>
<g class="st1">
	<path class="st2" d="M193.4,356.7V157.3h64c14.9,0,27,2.6,36.2,7.7c9.2,5.1,16,11.9,20.3,20.3c4.4,8.4,6.6,17.9,6.6,28.3
		c0,7.7-1.2,14.8-3.5,21.5c-2.4,6.6-6,12.5-11,17.6s-11.4,9.1-19,11.8c-7.7,2.8-17,4.2-27.9,4.2h-42.6v88H193.4z M216.5,248.8h40
		c9.8,0,17.7-1.4,23.7-4.3c6-2.9,10.4-6.9,13.1-12.2c2.8-5.2,4.2-11.3,4.2-18.1c0-6.6-1.4-12.6-4.2-17.9c-2.8-5.3-7.2-9.7-13.1-13
		c-6-3.3-13.8-5-23.4-5h-40.3L216.5,248.8L216.5,248.8z"/>
</g>
<path class="st3" d="M656,375V135V375z"/>
<path class="st3" d="M800,375V135V375z"/>
</svg>
