<svg id="Calque_1" data-name="Calque 1" xmlns="http://www.w3.org/2000/svg" viewBox="0 0 853.35 505"><defs><style>.cls-1,.cls-4{fill:none;}.cls-1,.cls-4,.cls-5{stroke:#f5f5f5;stroke-miterlimit:10;}.cls-1{stroke-width:25px;}.cls-2{isolation:isolate;}.cls-3,.cls-5{fill:#f5f5f5;}.cls-4,.cls-5{stroke-width:75px;}</style></defs><path id="haut" class="cls-1" d="M437.4,495H72.6A57.74,57.74,0,0,1,15,437.4V72.6A57.74,57.74,0,0,1,72.6,15H437.4A57.74,57.74,0,0,1,495,72.6V437.4A57.74,57.74,0,0,1,437.4,495Z" transform="translate(-2.5 -2.5)"/><g class="cls-2"><path class="cls-3" d="M193.45,356.73V157.27h64q22.41,0,36.18,7.68T314,185.28a60.69,60.69,0,0,1,6.56,28.34A63.63,63.63,0,0,1,317,235.07a47.75,47.75,0,0,1-11,17.61,49.75,49.75,0,0,1-19.05,11.84q-11.52,4.17-27.85,4.17H216.5v88ZM216.5,248.84h40q14.72,0,23.69-4.33a28.14,28.14,0,0,0,13.13-12.16,41.06,41.06,0,0,0,0-36,31.52,31.52,0,0,0-13.13-13q-9-5-23.37-5H216.5Z" transform="translate(-2.5 -2.5)"/></g><path class="cls-4" d="M656,375v0Z" transform="translate(-2.5 -2.5)"/><polygon class="cls-5" points="795.3 252.5 653.5 132.5 653.5 372.5 795.3 252.5"/></svg>