<?xml version="1.0" standalone="no"?>
<!DOCTYPE svg PUBLIC "-//W3C//DTD SVG 20010904//EN"
 "http://www.w3.org/TR/2001/REC-SVG-20010904/DTD/svg10.dtd">
<svg version="1.0" xmlns="http://www.w3.org/2000/svg"
 width="952.000000pt" height="952.000000pt" viewBox="0 0 952.000000 952.000000"
 preserveAspectRatio="xMidYMid meet">
<metadata>
Created by potrace 1.11, written by Peter Selinger 2001-2013
</metadata>
<g transform="translate(0.000000,952.000000) scale(0.100000,-0.100000)"
fill="#000000" stroke="none">
<path d="M161 9158 c-45 -78 -90 -207 -119 -343 -23 -108 -26 -141 -26 -325 0
-167 5 -227 22 -325 57 -310 188 -648 376 -970 47 -80 56 -103 75 -205 46
-249 52 -497 16 -635 -36 -140 -111 -248 -202 -293 -41 -19 -42 -35 -8 -160
46 -171 134 -328 229 -405 25 -21 75 -52 112 -69 93 -43 221 -50 344 -19 112
29 245 89 350 156 172 112 336 173 487 182 80 5 97 3 135 -16 137 -66 116
-267 -67 -631 -76 -150 -84 -172 -90 -240 -13 -159 32 -416 99 -557 51 -107
104 -179 198 -268 135 -129 327 -434 389 -620 32 -95 32 -188 2 -231 -73 -102
-284 -82 -631 60 -231 95 -258 108 -290 139 -69 67 -140 214 -164 342 -7 36
-15 65 -19 65 -4 0 -15 -51 -25 -112 -25 -154 -25 -449 0 -606 65 -418 247
-786 547 -1106 196 -210 593 -493 733 -522 247 -52 582 -79 876 -71 494 14
872 118 1175 323 113 77 201 116 310 139 458 94 853 -279 1098 -1040 20 -61
43 -140 52 -175 16 -64 18 -66 68 -92 321 -167 767 -259 1099 -229 476 44 877
231 1227 574 421 413 760 1002 905 1572 60 235 78 554 42 740 -88 465 -375
764 -905 943 -156 53 -173 54 -454 34 -354 -25 -645 18 -872 128 -199 96 -314
233 -365 433 -11 43 -32 101 -46 128 -66 121 -210 236 -348 278 -152 46 -311
46 -510 -1 -69 -16 -107 -19 -163 -14 -157 13 -337 77 -420 150 -44 38 -83
107 -83 146 0 38 -16 12 -39 -64 -28 -92 -27 -176 4 -273 43 -135 145 -264
303 -380 118 -88 277 -289 321 -408 58 -154 -1 -243 -175 -265 -80 -11 -152
-8 -304 12 l-85 11 -115 111 c-264 254 -483 378 -670 380 -97 1 -166 -23 -227
-78 l-47 -43 56 -27 c81 -38 196 -116 247 -167 171 -173 85 -321 -267 -458
-176 -68 -249 -74 -368 -30 -239 90 -405 428 -473 964 -44 342 -41 1184 5
1503 20 136 14 386 -11 502 -79 358 -298 598 -647 709 -186 59 -245 65 -658
66 -235 1 -394 6 -425 13 -245 54 -361 93 -526 176 -223 112 -411 262 -571
456 -204 246 -370 628 -432 994 -9 49 -18 91 -20 93 -2 3 -18 -19 -35 -49z
m3127 -5438 c12 -47 43 -128 69 -180 39 -80 60 -109 137 -185 73 -73 109 -100
181 -137 184 -94 354 -131 610 -131 152 0 182 3 280 27 973 241 1981 370 2626
337 276 -15 357 -24 564 -66 342 -68 535 -160 694 -331 213 -228 311 -470 311
-764 0 -335 -144 -637 -404 -846 -95 -77 -261 -162 -391 -201 -84 -25 -102
-27 -285 -27 -183 0 -201 2 -285 27 -263 79 -492 248 -627 462 -35 57 -45 65
-162 129 -240 130 -491 221 -755 273 -124 24 -157 27 -386 27 -201 1 -266 -2
-330 -16 -209 -45 -686 -62 -925 -33 -555 69 -901 316 -1044 745 -105 316 -84
792 52 1205 l37 110 6 -170 c4 -124 12 -193 27 -255z"/>
<path d="M8420 2658 c-28 -46 -35 -87 -35 -208 0 -114 20 -191 55 -210 45 -24
75 22 92 140 29 194 -48 383 -112 278z"/>
</g>
</svg>
